HIERARCHY
ROOT joint_Root
{
	OFFSET 0.0 0.0 0.0
	CHANNELS 6 Xposition Yposition Zposition Zrotation Xrotation Yrotation 
	JOINT Hips
	{
		OFFSET 4.5925 91.4895 -427.239
		CHANNELS 6 Xposition Yposition Zposition Zrotation Xrotation Yrotation 
		JOINT Spine
		{
			OFFSET 15.7357 0.0 0.0
			CHANNELS 6 Xposition Yposition Zposition Zrotation Xrotation Yrotation 
			JOINT Chest
			{
				OFFSET 8.98455 -0.406207 0.0
				CHANNELS 6 Xposition Yposition Zposition Zrotation Xrotation Yrotation 
				JOINT Neck
				{
					OFFSET 16.3773 0.0 0.0
					CHANNELS 6 Xposition Yposition Zposition Zrotation Xrotation Yrotation 
					JOINT Head
					{
						OFFSET 6.45672 0.0 0.0
						CHANNELS 6 Xposition Yposition Zposition Zrotation Xrotation Yrotation 
						End Site
						{
							OFFSET 0.0 0.0 0.0
						}
					}
				}
				JOINT Shoulder_L
				{
					OFFSET 12.9942 -0.242716 4.98039
					CHANNELS 6 Xposition Yposition Zposition Zrotation Xrotation Yrotation 
					JOINT UpperArm_L
					{
						OFFSET 5.34809 0.0 0.0
						CHANNELS 6 Xposition Yposition Zposition Zrotation Xrotation Yrotation 
						JOINT LowerArm_L
						{
							OFFSET 24.3286 1.87007e-05 0.0
							CHANNELS 6 Xposition Yposition Zposition Zrotation Xrotation Yrotation 
							JOINT Hand_L
							{
								OFFSET 22.2916 0.0 0.0
								CHANNELS 6 Xposition Yposition Zposition Zrotation Xrotation Yrotation 
								End Site
								{
									OFFSET 0.0 0.0 0.0
								}
							}
						}
					}
				}
				JOINT Shoulder_R
				{
					OFFSET 12.9945 -0.242716 -4.98039
					CHANNELS 6 Xposition Yposition Zposition Zrotation Xrotation Yrotation 
					JOINT UpperArm_R
					{
						OFFSET -5.34813 0.0 0.0
						CHANNELS 6 Xposition Yposition Zposition Zrotation Xrotation Yrotation 
						JOINT LowerArm_R
						{
							OFFSET -24.3289 0.000322201 0.0
							CHANNELS 6 Xposition Yposition Zposition Zrotation Xrotation Yrotation 
							JOINT Hand_R
							{
								OFFSET -22.2915 -0.000108084 0.0
								CHANNELS 6 Xposition Yposition Zposition Zrotation Xrotation Yrotation 
								End Site
								{
									OFFSET 0.0 0.0 0.0
								}
							}
						}
					}
				}
			}
		}
		JOINT UpperLeg_L
		{
			OFFSET -2.19248 -6.46944 0.0
			CHANNELS 6 Xposition Yposition Zposition Zrotation Xrotation Yrotation 
			JOINT LowerLeg_L
			{
				OFFSET 39.0811 0.0 -1.23785e-05
				CHANNELS 6 Xposition Yposition Zposition Zrotation Xrotation Yrotation 
				JOINT Foot_L
				{
					OFFSET 40.9854 0.0 -1.26872e-05
					CHANNELS 6 Xposition Yposition Zposition Zrotation Xrotation Yrotation 
					JOINT Toes_L
					{
						OFFSET 11.7543 0.0 0.0
						CHANNELS 6 Xposition Yposition Zposition Zrotation Xrotation Yrotation 
						End Site
						{
							OFFSET 0.0 0.0 0.0
						}
					}
				}
			}
		}
		JOINT UpperLeg_R
		{
			OFFSET -2.19251 6.46944 0.0
			CHANNELS 6 Xposition Yposition Zposition Zrotation Xrotation Yrotation 
			JOINT LowerLeg_R
			{
				OFFSET -39.0811 -0.00228153 -0.0401928
				CHANNELS 6 Xposition Yposition Zposition Zrotation Xrotation Yrotation 
				JOINT Foot_R
				{
					OFFSET -40.9854 0.0 0.0
					CHANNELS 6 Xposition Yposition Zposition Zrotation Xrotation Yrotation 
					JOINT Toes_R
					{
						OFFSET -11.7543 0.0 0.0
						CHANNELS 6 Xposition Yposition Zposition Zrotation Xrotation Yrotation 
						End Site
						{
							OFFSET 0.0 0.0 0.0
						}
					}
				}
			}
		}
	}
}
MOTION
Frames:	8
Frame Time:	0.0333333
0.000000 0.000000 0.000000 0.000000 0.000000 -0.000000 -0.059578 82.139000 -2.212470 89.115500 -3.026080 12.067100 15.735700 0.000005 -0.000001 87.589700 81.138300 -87.951400 8.984550 -0.406207 -0.000000 9.940020 -0.747552 -0.657870 16.377300 -0.000001 -0.000001 -4.311840 -3.090370 2.273050 6.456720 -0.000001 -0.000000 -4.467390 -1.597260 2.648830 12.994200 -0.242716 4.980390 -90.796200 3.021080 -75.226500 5.348090 -0.000007 -0.000001 -50.466500 36.474600 -28.447700 24.328600 0.000019 0.000005 11.001300 31.838900 -20.230200 22.291600 -0.000001 0.000005 5.391270 5.502850 -6.660640 12.994500 -0.242716 -4.980390 89.147100 6.412910 -82.406800 -5.348130 -0.000001 -0.000004 -48.082900 48.131200 -26.094200 -24.328900 0.000322 -0.000009 5.285840 13.824400 -21.175700 -22.291500 -0.000108 -0.000004 -8.518660 5.191420 2.934310 -2.192480 -6.469440 -0.000000 -174.020000 -11.397800 -15.023600 39.081100 -0.000007 -0.000012 -0.555856 0.287688 62.637000 40.985400 -0.000006 -0.000013 1.377490 4.242590 -85.314200 11.754300 -0.000000 0.000003 -0.000406 -0.003350 -16.701000 -2.192510 6.469440 -0.000001 176.326000 11.023700 165.158000 -39.081100 -0.002282 -0.040193 0.089685 -0.044711 62.666400 -40.985400 0.000008 0.000006 7.352060 4.831630 -85.697700 -11.754300 -0.000006 -0.000006 -0.335764 -0.413756 -17.021100
0.000000 0.000000 0.000000 0.000000 0.000000 -0.000000 -0.119497 84.016900 -1.787360 89.255000 -3.012530 12.298600 15.735700 0.000005 -0.000001 87.583000 82.022000 -87.988400 8.984550 -0.406207 -0.000000 8.173840 -0.671350 -0.761983 16.377300 -0.000001 -0.000001 -1.149730 -3.015690 2.238800 6.456720 -0.000001 -0.000000 -1.956660 -1.777730 1.830800 12.994200 -0.242716 4.980390 -90.421200 1.531670 -74.616800 5.348090 -0.000007 -0.000001 -44.418800 28.464200 -36.308200 24.328600 0.000019 0.000005 9.996140 27.505900 -20.890400 22.291600 -0.000001 0.000005 8.552690 5.469510 -5.372420 12.994500 -0.242716 -4.980390 89.293500 4.784620 -81.589000 -5.348130 -0.000001 -0.000004 -38.135700 43.743100 -37.972900 -24.328900 0.000322 -0.000009 4.087110 9.146830 -24.218200 -22.291500 -0.000108 -0.000004 -7.651500 5.203680 2.625440 -2.192480 -6.469440 -0.000000 -174.129000 -11.224600 -11.712400 39.081100 -0.000007 -0.000012 -0.484538 0.313371 57.108700 40.985400 -0.000006 -0.000013 1.066800 4.228410 -82.865100 11.754300 -0.000000 0.000003 -0.000368 -0.003089 -16.691800 -2.192510 6.469440 -0.000001 176.296000 10.520000 168.320000 -39.081100 -0.002282 -0.040193 0.078218 -0.048089 57.333500 -40.985400 0.000008 0.000006 6.984790 4.762750 -83.114900 -11.754300 -0.000006 -0.000006 -0.376007 -0.463678 -17.177100
0.000000 0.000000 0.000000 0.000000 0.000000 -0.000000 -0.108491 86.259000 -1.324410 89.504100 -3.268870 12.520000 15.735700 0.000005 -0.000001 87.799400 82.941000 -88.227700 8.984550 -0.406207 -0.000000 6.339910 -0.535193 -0.825972 16.377300 -0.000001 -0.000001 2.841070 -2.912380 2.034460 6.456720 -0.000001 -0.000000 1.062810 -2.092520 1.109840 12.994200 -0.242716 4.980390 -89.860000 -0.495450 -74.236000 5.348090 -0.000007 -0.000001 -39.545700 17.541200 -43.966400 24.328600 0.000019 0.000005 11.195400 26.804900 -23.696600 22.291600 -0.000001 0.000005 10.456900 5.438850 -4.251500 12.994500 -0.242716 -4.980390 89.534900 2.852610 -80.732800 -5.348130 -0.000001 -0.000004 -30.715800 32.951600 -48.045300 -24.328900 0.000322 -0.000009 4.575210 8.336030 -28.894800 -22.291500 -0.000108 -0.000004 -3.612020 5.201480 2.672960 -2.192480 -6.469440 -0.000000 -174.422000 -11.090700 -7.455660 39.081100 -0.000007 -0.000012 -0.404572 0.342398 49.759000 40.985400 -0.000006 -0.000013 0.654331 3.984840 -79.552200 11.754300 -0.000000 0.000003 -0.000268 -0.002366 -16.666000 -2.192510 6.469440 -0.000001 175.860000 10.631400 172.277000 -39.081100 -0.002282 -0.040193 0.063095 -0.049534 50.386900 -40.985400 0.000008 0.000006 6.749750 5.711480 -79.638000 -11.754300 -0.000006 -0.000006 -0.255428 -0.323106 -17.589800
0.000000 0.000000 0.000000 0.000000 0.000000 -0.000000 -0.057969 88.159700 -1.124120 89.644500 -3.883290 11.512000 15.735700 0.000005 -0.000001 88.738100 84.096000 -89.146700 8.984550 -0.406207 -0.000000 4.038320 -0.246381 -0.807730 16.377300 -0.000001 -0.000001 6.020030 -2.818230 2.090310 6.456720 -0.000001 -0.000000 4.275590 -2.370220 0.253583 12.994200 -0.242716 4.980390 -89.243600 -2.578640 -73.646000 5.348090 -0.000007 -0.000001 -35.397300 4.829540 -51.209300 24.328600 0.000019 0.000005 12.678500 25.025200 -28.007400 22.291600 -0.000001 0.000005 11.711500 5.404120 -3.080770 12.994500 -0.242716 -4.980390 89.930500 0.411432 -80.402400 -5.348130 -0.000001 -0.000004 -27.470400 17.869800 -55.141800 -24.328900 0.000322 -0.000009 7.550290 10.780300 -35.313100 -22.291500 -0.000108 -0.000004 2.642010 5.199550 2.748760 -2.192480 -6.469440 -0.000000 -174.924000 -11.067900 -4.808370 39.081100 -0.000007 -0.000012 -0.324152 0.350663 42.750900 40.985400 -0.000006 -0.000013 0.180785 3.334220 -76.214800 11.754300 -0.000000 0.000003 -0.000193 -0.001799 -16.645500 -2.192510 6.469440 -0.000001 175.519000 11.541700 174.626000 -39.081100 -0.002282 -0.040193 0.048039 -0.046763 43.753700 -40.985400 0.000008 0.000006 6.798730 7.744590 -76.283300 -11.754300 -0.000006 -0.000006 -0.093549 -0.138643 -17.926800
0.000000 0.000000 0.000000 0.000000 0.000000 -0.000000 0.025688 89.485900 -1.192830 89.329400 -4.409190 9.673110 15.735700 0.000005 -0.000001 90.989400 85.122400 -91.195300 8.984550 -0.406207 -0.000000 1.988090 0.178720 -0.414557 16.377300 -0.000001 -0.000001 7.414410 -2.873150 2.252650 6.456720 -0.000001 -0.000000 6.214460 -2.507150 -0.281684 12.994200 -0.242716 4.980390 -88.528100 -4.890000 -73.227400 5.348090 -0.000007 -0.000001 -33.638300 -9.227930 -57.203200 24.328600 0.000019 0.000005 13.338000 20.715400 -33.839100 22.291600 -0.000001 0.000005 15.374200 5.382880 -2.405830 12.994500 -0.242716 -4.980390 90.384500 -2.166630 -79.939900 -5.348130 -0.000001 -0.000004 -28.740400 -0.251234 -60.055800 -24.328900 0.000322 -0.000009 9.951940 10.672200 -43.473000 -22.291500 -0.000108 -0.000004 11.606400 5.289750 0.469555 -2.192480 -6.469440 -0.000000 -175.220000 -10.762900 -4.078190 39.081100 -0.000007 -0.000012 -0.271496 0.354326 37.461000 40.985400 -0.000006 -0.000013 -0.176410 2.523920 -73.529000 11.754300 -0.000000 0.000003 -0.000154 -0.001484 -16.633900 -2.192510 6.469440 -0.000001 175.660000 13.419000 175.482000 -39.081100 -0.002282 -0.040193 0.035537 -0.040930 38.239400 -40.985400 0.000008 0.000006 6.906880 10.370700 -73.655700 -11.754300 -0.000006 -0.000006 -0.002469 -0.034435 -17.973400
0.000000 0.000000 0.000000 0.000000 0.000000 -0.000000 0.048724 90.335900 -1.257940 88.875100 -4.452660 7.757850 15.735700 0.000005 -0.000001 93.729300 85.736400 -93.773200 8.984550 -0.406207 -0.000000 0.743308 0.557121 -0.091340 16.377300 -0.000001 -0.000001 6.913720 -2.953220 2.468750 6.456720 -0.000001 -0.000000 6.393210 -2.740280 -0.131448 12.994200 -0.242716 4.980390 -87.837200 -6.681780 -72.019300 5.348090 -0.000007 -0.000001 -33.981600 -23.938300 -63.913800 24.328600 0.000019 0.000005 14.420800 17.288500 -40.867900 22.291600 -0.000001 0.000005 20.115700 5.348060 -1.344870 12.994500 -0.242716 -4.980390 90.844600 -4.212510 -78.655500 -5.348130 -0.000001 -0.000004 -34.874200 -18.996300 -66.585000 -24.328900 0.000322 -0.000009 6.653610 5.293070 -51.697500 -22.291500 -0.000108 -0.000004 20.007100 5.417610 -3.474220 -2.192480 -6.469440 -0.000000 -175.253000 -10.516000 -4.276170 39.081100 -0.000007 -0.000012 -0.225871 0.337006 33.831500 40.985400 -0.000006 -0.000013 -0.342555 2.186720 -71.636800 11.754300 -0.000000 0.000003 -0.000129 -0.001275 -16.626200 -2.192510 6.469440 -0.000001 176.079000 15.691800 175.806000 -39.081100 -0.002282 -0.040193 0.027085 -0.035399 33.905400 -40.985400 0.000008 0.000006 7.106250 12.712000 -72.006800 -11.754300 -0.000006 -0.000006 -0.002680 -0.036925 -18.074700
0.000000 0.000000 0.000000 0.000000 0.000000 -0.000000 -0.012008 90.876100 -1.346810 88.532000 -3.853450 5.879060 15.735700 0.000005 -0.000001 95.487100 86.219600 -95.419200 8.984550 -0.406207 -0.000000 -0.240175 0.718065 0.137272 16.377300 -0.000001 -0.000001 5.862170 -2.943050 2.240300 6.456720 -0.000001 -0.000000 5.600720 -3.148860 0.558780 12.994200 -0.242716 4.980390 -87.332600 -7.668480 -70.754400 5.348090 -0.000007 -0.000001 -37.046800 -37.281300 -71.507300 24.328600 0.000019 0.000005 16.229600 15.373100 -47.677800 22.291600 -0.000001 0.000005 25.293400 5.317840 -0.436192 12.994500 -0.242716 -4.980390 91.481200 -6.277870 -76.699900 -5.348130 -0.000001 -0.000004 -46.360500 -34.075000 -78.084200 -24.328900 0.000322 -0.000009 5.034940 3.168340 -57.912300 -22.291500 -0.000108 -0.000004 24.948000 5.447270 -4.540300 -2.192480 -6.469440 -0.000000 -175.165000 -10.703600 -5.142240 39.081100 -0.000007 -0.000012 -0.200671 0.328607 31.411600 40.985400 -0.000006 -0.000013 -0.233697 2.926310 -70.248100 11.754300 -0.000000 0.000003 -0.000119 -0.001190 -16.623000 -2.192510 6.469440 -0.000001 176.755000 17.417700 175.606000 -39.081100 -0.002282 -0.040193 0.023584 -0.034204 30.668300 -40.985400 0.000008 0.000006 7.246660 13.817100 -70.971400 -11.754300 -0.000006 -0.000006 -0.002776 -0.038039 -18.120000
0.000000 0.000000 0.000000 0.000000 0.000000 -0.000000 -0.095942 91.259200 -1.285880 88.363500 -2.659740 4.282860 15.735700 0.000005 -0.000001 94.236400 86.811600 -94.168300 8.984550 -0.406207 -0.000000 -1.407020 0.465507 0.141966 16.377300 -0.000001 -0.000001 5.486940 -3.168600 2.328140 6.456720 -0.000001 -0.000000 4.930940 -3.476940 0.889523 12.994200 -0.242716 4.980390 -86.743400 -8.791600 -69.581900 5.348090 -0.000007 -0.000001 -46.129400 -46.422100 -82.597200 24.328600 0.000019 0.000005 16.388900 13.538800 -51.480200 22.291600 -0.000001 0.000005 26.753500 5.319410 -0.478847 12.994500 -0.242716 -4.980390 92.232300 -7.916560 -74.199800 -5.348130 -0.000001 -0.000004 -58.833200 -42.465300 -92.290500 -24.328900 0.000322 -0.000009 4.048870 2.450930 -58.867600 -22.291500 -0.000108 -0.000004 24.888800 5.471620 -5.430090 -2.192480 -6.469440 -0.000000 -175.200000 -10.604100 -5.952390 39.081100 -0.000007 -0.000012 -0.183672 0.324600 29.503200 40.985400 -0.000006 -0.000013 -0.094020 3.896650 -69.194400 11.754300 -0.000000 0.000003 -0.000130 -0.001286 -16.626600 -2.192510 6.469440 -0.000001 177.299000 19.028800 175.403000 -39.081100 -0.002282 -0.040193 0.021607 -0.034116 28.210600 -40.985400 0.000008 0.000006 7.197270 14.247600 -70.136200 -11.754300 -0.000006 -0.000006 -0.002831 -0.038678 -18.146000
